<?xml version="1.0" encoding="UTF-8"?>
<!DOCTYPE svg PUBLIC "-//W3C//DTD SVG 1.1//EN" "http://www.w3.org/Graphics/SVG/1.1/DTD/svg11.dtd">
<!-- Creator: CorelDRAW X8 -->
<svg xmlns="http://www.w3.org/2000/svg" xml:space="preserve" width="180.161mm" height="183.359mm" version="1.1" style="shape-rendering:geometricPrecision; text-rendering:geometricPrecision; image-rendering:optimizeQuality; fill-rule:evenodd; clip-rule:evenodd"
viewBox="0 0 4910 4997"
 xmlns:xlink="http://www.w3.org/1999/xlink">
 <defs>
  <style type="text/css">
   <![CDATA[
    .str5 {stroke:black;stroke-width:32.1332}
    .str11 {stroke:black;stroke-width:32.1332}
    .str14 {stroke:#F2DC4B;stroke-width:32.1387}
    .str2 {stroke:black;stroke-width:32.1414}
    .str3 {stroke:black;stroke-width:32.1414}
    .str4 {stroke:black;stroke-width:32.1414}
    .str1 {stroke:black;stroke-width:32.1414}
    .str8 {stroke:black;stroke-width:32.1414}
    .str7 {stroke:black;stroke-width:32.1414}
    .str10 {stroke:black;stroke-width:32.1414}
    .str9 {stroke:black;stroke-width:32.1414}
    .str17 {stroke:black;stroke-width:80.3454}
    .str12 {stroke:black;stroke-width:80.3454}
    .str15 {stroke:black;stroke-width:40.1727}
    .str18 {stroke:black;stroke-width:40.1727}
    .str20 {stroke:black;stroke-width:40.1727}
    .str22 {stroke:black;stroke-width:40.1727}
    .str16 {stroke:black;stroke-width:40.1727}
    .str13 {stroke:black;stroke-width:40.1727}
    .str21 {stroke:black;stroke-width:40.1727}
    .str19 {stroke:black;stroke-width:40.1727}
    .str0 {stroke:black;stroke-width:120.523}
    .str6 {stroke:black;stroke-width:120.523}
    .fil4 {fill:none}
    .fil6 {fill:#5F4027}
    .fil1 {fill:#786754}
    .fil5 {fill:#7F5E3F}
    .fil11 {fill:#7F5E3F}
    .fil3 {fill:#907F6B}
    .fil9 {fill:#95998A}
    .fil7 {fill:#ABB8A4}
    .fil18 {fill:#B03415}
    .fil19 {fill:#B03415}
    .fil21 {fill:#B0B073}
    .fil10 {fill:#B6CFC2}
    .fil2 {fill:#BDB5A2}
    .fil8 {fill:#C8DCD2}
    .fil16 {fill:#CA411F}
    .fil20 {fill:#E2E2A4}
    .fil13 {fill:#F2DC4B}
    .fil15 {fill:#F2DC4B}
    .fil22 {fill:#FAFABE}
    .fil0 {fill:#FE9927}
    .fil12 {fill:#FFF369}
    .fil14 {fill:#FFF369}
    .fil17 {fill:white}
    .fil23 {fill:black;fill-rule:nonzero}
   ]]>
  </style>
 </defs>
 <g id="Camada_x0020_1">
  <metadata id="CorelCorpID_0Corel-Layer"/>
  <g id="_626933576">
   <path class="fil0" d="M2455 855c1083,0 1961,878 1961,1961 0,259 -50,507 -142,733 -474,-131 -1114,-212 -1819,-212 -705,0 -1345,81 -1820,212 -91,-226 -141,-474 -141,-733 0,-1083 878,-1961 1961,-1961z"/>
   <g>
    <g>
     <path class="fil1 str0" d="M527 2345c74,-219 894,-702 1097,-653 3,0 5,1 7,2l0 0c13,4 24,13 31,24 13,22 26,44 39,66 14,23 2,47 -16,67 -8,9 -16,17 -24,25l543 957 12 18c13,-14 25,-28 37,-41 19,-23 58,-7 73,18 14,23 28,47 42,70 16,25 2,52 -18,73 -149,164 -328,306 -521,422 -184,111 -364,191 -610,258 -28,8 -57,7 -72,-18 -14,-24 -29,-47 -43,-71 -15,-25 -10,-65 18,-73 11,-3 22,-6 33,-9l-69 -138c-59,31 -125,49 -195,49 -235,0 -426,-197 -426,-440 0,-169 92,-316 228,-389l-43 -84 -15 4c-26,7 -54,6 -68,-17 -13,-22 -26,-44 -39,-65 -10,-17 -10,-41 -1,-55zm489 859l-254 -504c-87,48 -146,142 -146,251 0,157 123,284 275,284 45,0 88,-11 125,-31z"/>
     <g>
      <path class="fil1 str1" d="M528 2400c-92,-177 894,-774 1103,-706 0,0 -97,294 -461,508 -365,214 -463,190 -642,198z"/>
      <path class="fil2 str2" d="M891 2511c235,0 425,197 425,440 0,243 -190,440 -425,440 -235,0 -426,-197 -426,-440 0,-243 191,-440 426,-440zm0 156c151,0 275,127 275,284 0,157 -124,284 -275,284 -152,0 -275,-127 -275,-284 0,-157 123,-284 275,-284z"/>
      <path class="fil3" d="M1193 3260c-58,61 -133,104 -218,122 8,-63 -2,-115 -19,-155 87,-22 157,-86 190,-169l0 0 47 202z"/>
      <path class="fil3" d="M621 2611c68,-58 153,-94 247,-99l59 158c-12,-2 -24,-3 -36,-3 -75,0 -143,31 -193,81 -14,-58 -25,-94 -77,-137z"/>
      <path class="fil4 str2" d="M891 2511c235,0 425,197 425,440 0,243 -190,440 -425,440 -235,0 -426,-197 -426,-440 0,-243 191,-440 426,-440zm0 156c151,0 275,127 275,284 0,157 -124,284 -275,284 -152,0 -275,-127 -275,-284 0,-157 123,-284 275,-284z"/>
      <polygon class="fil5 str3" points="641,2458 1170,3509 1593,3476 2253,2906 2204,2833 1618,1799 1316,2076 657,2352 "/>
      <polygon class="fil6" points="1527,1882 2223,3006 1743,3347 1123,2157 "/>
      <path class="fil2 str4" d="M1594 1701c-123,143 -300,282 -477,388 -173,104 -362,188 -572,243 -26,7 -31,44 -17,68 13,22 26,43 39,65 14,23 42,24 68,17 228,-62 395,-136 566,-239 179,-108 345,-240 484,-392 18,-20 30,-44 16,-67 -13,-22 -26,-44 -39,-66 -14,-23 -50,-37 -68,-17z"/>
      <path class="fil3" d="M1539 1761c-118,121 -270,237 -422,328 -35,21 -71,42 -108,61l93 149c33,-18 66,-36 99,-56 155,-93 301,-205 427,-332l-89 -150z"/>
      <path class="fil2 str5" d="M2253 2810c-133,153 -323,303 -514,417 -186,112 -391,203 -617,262 -28,8 -33,48 -18,73 14,24 29,47 43,71 15,25 44,26 72,18 246,-67 426,-147 610,-258 193,-116 372,-258 521,-422 20,-21 34,-48 18,-73 -14,-23 -28,-47 -42,-70 -15,-25 -54,-40 -73,-18z"/>
      <path class="fil3" d="M2199 2869c-128,132 -294,259 -460,358 -48,29 -96,56 -147,82l86 169c51,-26 101,-54 151,-85 173,-104 336,-229 475,-372l-105 -152z"/>
      <path class="fil4 str5" d="M2253 2810c-133,153 -323,303 -514,417 -186,112 -391,203 -617,262 -28,8 -33,48 -18,73 14,24 29,47 43,71 15,25 44,26 72,18 246,-67 426,-147 610,-258 193,-116 372,-258 521,-422 20,-21 34,-48 18,-73 -14,-23 -28,-47 -42,-70 -15,-25 -54,-40 -73,-18z"/>
      <path class="fil4 str4" d="M1594 1701c-123,143 -300,282 -477,388 -173,104 -362,188 -572,243 -26,7 -31,44 -17,68 13,22 26,43 39,65 14,23 42,24 68,17 228,-62 395,-136 566,-239 179,-108 345,-240 484,-392 18,-20 30,-44 16,-67 -13,-22 -26,-44 -39,-66 -14,-23 -50,-37 -68,-17z"/>
     </g>
    </g>
    <g>
     <path class="fil1 str6" d="M4382 2345c-73,-219 -893,-702 -1097,-653 -2,0 -4,1 -6,2l0 0c-13,4 -24,13 -31,24 -13,22 -26,44 -40,66 -14,23 -1,47 17,67 8,9 16,17 23,25l-542 957 -12 18c-13,-14 -25,-28 -37,-41 -19,-23 -58,-7 -73,18 -14,23 -29,47 -43,70 -15,25 -1,52 18,73 149,164 329,306 522,422 184,111 364,191 609,258 28,8 58,7 73,-18 14,-24 28,-47 43,-71 15,-25 10,-65 -19,-73 -11,-3 -22,-6 -33,-9l70 -138c58,31 125,49 195,49 235,0 426,-197 426,-440 0,-169 -93,-316 -228,-389l42 -84 16 4c26,7 53,6 67,-17 14,-22 27,-44 40,-65 10,-17 10,-41 0,-55zm-488 859l254 -504c87,48 146,142 146,251 0,157 -123,284 -275,284 -45,0 -88,-11 -125,-31z"/>
     <g>
      <path class="fil1 str7" d="M4382 2400c91,-177 -894,-774 -1103,-706 0,0 97,294 461,508 365,214 463,190 642,198z"/>
      <path class="fil2 str8" d="M4019 2511c-235,0 -425,197 -425,440 0,243 190,440 425,440 235,0 426,-197 426,-440 0,-243 -191,-440 -426,-440zm0 156c-152,0 -275,127 -275,284 0,157 123,284 275,284 152,0 275,-127 275,-284 0,-157 -123,-284 -275,-284z"/>
      <path class="fil3" d="M3716 3260c59,61 134,104 218,122 -8,-63 3,-115 19,-155 -86,-22 -156,-86 -189,-169l0 0 -48 202z"/>
      <path class="fil3" d="M4289 2611c-68,-58 -154,-94 -247,-99l-59 158c12,-2 24,-3 36,-3 75,0 143,31 192,81 15,-58 26,-94 78,-137z"/>
      <path class="fil4 str8" d="M4019 2511c-235,0 -425,197 -425,440 0,243 190,440 425,440 235,0 426,-197 426,-440 0,-243 -191,-440 -426,-440zm0 156c-152,0 -275,127 -275,284 0,157 123,284 275,284 152,0 275,-127 275,-284 0,-157 -123,-284 -275,-284z"/>
      <polygon class="fil5 str9" points="4269,2458 3740,3509 3317,3476 2657,2906 2706,2833 3292,1799 3593,2076 4253,2352 "/>
      <polygon class="fil6" points="3383,1882 2687,3006 3167,3347 3787,2157 "/>
      <path class="fil2 str10" d="M3315 1701c124,143 301,282 477,388 174,104 363,188 573,243 26,7 31,44 17,68 -13,22 -26,43 -40,65 -14,23 -41,24 -67,17 -228,-62 -395,-136 -566,-239 -179,-108 -346,-240 -484,-392 -18,-20 -31,-44 -17,-67 14,-22 27,-44 40,-66 14,-23 50,-37 67,-17z"/>
      <path class="fil3" d="M3371 1761c118,121 270,237 421,328 36,21 72,42 109,61l-94 149c-33,-18 -65,-36 -98,-56 -155,-93 -301,-205 -427,-332l89 -150z"/>
      <path class="fil2 str11" d="M2657 2810c133,153 323,303 514,417 186,112 390,203 616,262 29,8 34,48 19,73 -15,24 -29,47 -43,71 -15,25 -45,26 -73,18 -245,-67 -425,-147 -609,-258 -193,-116 -373,-258 -522,-422 -19,-21 -33,-48 -18,-73 14,-23 29,-47 43,-70 15,-25 54,-40 73,-18z"/>
      <path class="fil3" d="M2711 2869c128,132 294,259 460,358 47,29 96,56 146,82l-85 169c-51,-26 -101,-54 -151,-85 -174,-104 -336,-229 -475,-372l105 -152z"/>
      <path class="fil4 str11" d="M2657 2810c133,153 323,303 514,417 186,112 390,203 616,262 29,8 34,48 19,73 -15,24 -29,47 -43,71 -15,25 -45,26 -73,18 -245,-67 -425,-147 -609,-258 -193,-116 -373,-258 -522,-422 -19,-21 -33,-48 -18,-73 14,-23 29,-47 43,-70 15,-25 54,-40 73,-18z"/>
      <path class="fil4 str10" d="M3315 1701c124,143 301,282 477,388 174,104 363,188 573,243 26,7 31,44 17,68 -13,22 -26,43 -40,65 -14,23 -41,24 -67,17 -228,-62 -395,-136 -566,-239 -179,-108 -346,-240 -484,-392 -18,-20 -31,-44 -17,-67 14,-22 27,-44 40,-66 14,-23 50,-37 67,-17z"/>
     </g>
    </g>
   </g>
   <g>
    <g>
     <path class="fil7" d="M2611 597c-3,2 -6,4 -10,6l10 -6zm-31 16c-3,2 -7,3 -10,5l10 -5zm-544 2734l25 -224 27 -244 49 -444 28 -246 29 -261c-273,17 -515,60 -631,130l0 -441c85,-78 371,-124 691,-137 7,-171 31,-480 108,-854 -120,-39 -207,-152 -207,-286 0,-154 117,-282 268,-298l0 0 1 0 0 0 1 0 0 0 1 0 0 0 1 -1 0 0 1 0 0 0 1 0 0 0 1 0 0 0 1 0 0 0 1 0 1 0 0 0 1 0 0 0 1 0 0 0 1 0 0 0 1 0 0 0 1 0 0 0 1 0 1 0 0 0 1 0 0 -1 1 0 0 0 2 0 0 0 1 0 0 0 1 0 0 0 1 0 0 0 0 0 1 0 0 0 1 0 5 0 0 0 1 0c166,0 300,135 300,300l0 8 0 1 0 6 0 1 -1 6 0 1 0 4 0 4 0 0 -1 6 0 0 -1 7 0 1 -1 6 0 2 -1 5 -1 2 -1 4 0 2 0 1 -2 6 0 0 -1 6 0 1 -2 5 0 0 -1 4 -1 2 -1 4 0 1 -2 4 0 2 -1 2 -1 3 -2 6 -1 0 -2 5 0 0 -2 5 0 1 -2 4 -1 1 -1 4 -1 0 -1 3 -2 3 -3 5 0 1 0 0 -3 5 0 1 -2 4 -1 0 -2 4 -1 1 -2 4 -1 1 -3 4 -3 5 0 0 -3 5 -1 0 -2 3 -1 1 -2 3 0 0 -3 3 -2 3 0 0 -4 4 0 1c-4,4 -7,8 -11,12l-1 1 -4 3 0 1 -4 4 0 0 -4 4 -5 4 -3 3 -1 1 -4 3 -1 0c-9,8 -18,14 -28,21l0 0 -4 3 -1 0c-3,2 -6,4 -10,6l-5 2 0 0 -5 3 -5 3 0 0 -5 2 -1 0c-3,2 -7,3 -10,5l-6 2 0 0 -5 2c-4,2 -8,3 -11,4l-1 0c8,35 15,70 21,104l0 2 5 25 0 1c19,105 34,203 45,294l3 22c11,89 19,169 24,239l1 3c2,35 4,67 6,97l0 0 1 15 0 1 1 13 0 3 0 11 1 13 0 6 0 5c75,3 149,8 218,14l2 1c18,1 35,3 52,5l9 1 4 1 2 0c21,2 42,5 63,8l5 1 7 1 7 1 6 1c16,2 32,5 48,8l0 0 11 2c7,1 14,3 21,4l2 1 11 2 0 0 6 1 5 1 2 1 8 1 9 2 2 1 10 2 0 0 10 3 1 0 9 2 9 3 1 0 8 2 2 1 7 2 3 1 6 2 1 0 7 2 2 1 8 2 1 0 8 3 1 1 7 2 0 0 7 3 1 0 5 2 5 2 2 1 5 2 4 2 1 0 5 3 1 0 5 3 2 0 0 1 7 3 0 0 6 3 0 0 4 3 2 1 3 2 4 2 2 1 4 3 1 1 4 3 2 1 2 2 3 2 4 4 0 441 -6 -4 -3 -1 -4 -3 -3 -1 -4 -2 -2 -1 -1 -1c-5,-2 -10,-5 -15,-7l-1 0 -4 -2 -4 -2 -1 0 -8 -4 0 0 -9 -3 -1 -1 -8 -3 -1 0 -3 -2 -6 -2 -2 0 -7 -3 -1 0 -7 -3 -3 -1 -2 0 -6 -2 -3 -1 -2 -1 -8 -2 -1 -1 -8 -2 -2 -1 -7 -2 -4 -1 -5 -1 -7 -2 -2 -1 -9 -2 0 0 -9 -2 -18 -5 -1 0 -8 -2 -1 0 -10 -2 -2 -1 -8 -2 -9 -2 -1 0 -7 -1 -3 -1 -10 -2 -9 -2 -1 0 -3 0 -8 -2 -6 -1 -4 -1 -9 -1 -2 -1 -21 -3 0 0 -5 -1 -6 -1 -1 0c-11,-2 -22,-3 -33,-5l-3 -1 -8 -1 -23 -3 -11 -1 -2 0 -10 -2 -23 -3 -12 -1 0 0 -12 -1 -24 -3 -1 0c-40,-4 -82,-7 -124,-10l-13 -1 110 985 34 313 14 121c-137,-6 -277,-10 -419,-10 -143,0 -283,4 -419,10z"/>
     <path id="1" class="fil4 str12" d="M2611 597c-3,2 -6,4 -10,6m-21 10c-3,2 -7,3 -10,5m-534 2729l25 -224 27 -244 49 -444 28 -246 29 -261c-273,17 -515,60 -631,130l0 -441c85,-78 371,-124 691,-137 7,-171 31,-480 108,-854 -120,-39 -207,-152 -207,-286 0,-154 117,-282 268,-298l0 0 1 0 0 0 1 0 0 0 1 0 0 0 1 -1 0 0 1 0 0 0 1 0 0 0 1 0 0 0 1 0 0 0 1 0 1 0 0 0 1 0 0 0 1 0 0 0 1 0 0 0 1 0 0 0 1 0 0 0 1 0 1 0 0 0 1 0 0 -1 1 0 0 0 2 0 0 0 1 0 0 0 1 0 0 0 1 0 0 0 0 0 1 0 0 0 1 0 5 0 0 0 1 0c166,0 300,135 300,300l0 8 0 1 0 6 0 1 -1 6 0 1 0 4 0 4 0 0 -1 6 0 0 -1 7 0 1 -1 6 0 2 -1 5 -1 2 -1 4 0 2 0 1 -2 6 0 0 -1 6 0 1 -2 5 0 0 -1 4 -1 2 -1 4 0 1 -2 4 0 2 -1 2 -1 3 -2 6 -1 0 -2 5 0 0 -2 5 0 1 -2 4 -1 1 -1 4 -1 0 -1 3 -2 3 -3 5 0 1 0 0 -3 5 0 1 -2 4 -1 0 -2 4 -1 1 -2 4 -1 1 -3 4 -3 5 0 0 -3 5 -1 0 -2 3 -1 1 -2 3 0 0 -3 3 -2 3 0 0 -4 4 0 1c-4,4 -7,8 -11,12l-1 1 -4 3 0 1 -4 4 0 0 -4 4 -5 4 -3 3 -1 1 -4 3 -1 0c-9,8 -18,14 -28,21l0 0 -4 3 -1 0c-3,2 -6,4 -10,6l-5 2 0 0 -5 3 -5 3 0 0 -5 2 -1 0c-3,2 -7,3 -10,5l-6 2 0 0 -5 2c-4,2 -8,3 -11,4l-1 0c8,35 15,70 21,104l0 2 5 25 0 1c19,105 34,203 45,294l3 22c11,89 19,169 24,239l1 3c2,35 4,67 6,97l0 0 1 15 0 1 1 13 0 3 0 11 1 13 0 6 0 5c75,3 149,8 218,14l2 1c18,1 35,3 52,5l9 1 4 1 2 0c21,2 42,5 63,8l5 1 7 1 7 1 6 1c16,2 32,5 48,8l0 0 11 2c7,1 14,3 21,4l2 1 11 2 0 0 6 1 5 1 2 1 8 1 9 2 2 1 10 2 0 0 10 3 1 0 9 2 9 3 1 0 8 2 2 1 7 2 3 1 6 2 1 0 7 2 2 1 8 2 1 0 8 3 1 1 7 2 0 0 7 3 1 0 5 2 5 2 2 1 5 2 4 2 1 0 5 3 1 0 5 3 2 0 0 1 7 3 0 0 6 3 0 0 4 3 2 1 3 2 4 2 2 1 4 3 1 1 4 3 2 1 2 2 3 2 4 4 0 441 -6 -4 -3 -1 -4 -3 -3 -1 -4 -2 -2 -1 -1 -1c-5,-2 -10,-5 -15,-7l-1 0 -4 -2 -4 -2 -1 0 -8 -4 0 0 -9 -3 -1 -1 -8 -3 -1 0 -3 -2 -6 -2 -2 0 -7 -3 -1 0 -7 -3 -3 -1 -2 0 -6 -2 -3 -1 -2 -1 -8 -2 -1 -1 -8 -2 -2 -1 -7 -2 -4 -1 -5 -1 -7 -2 -2 -1 -9 -2 0 0 -9 -2 -18 -5 -1 0 -8 -2 -1 0 -10 -2 -2 -1 -8 -2 -9 -2 -1 0 -7 -1 -3 -1 -10 -2 -9 -2 -1 0 -3 0 -8 -2 -6 -1 -4 -1 -9 -1 -2 -1 -21 -3 0 0 -5 -1 -6 -1 -1 0c-11,-2 -22,-3 -33,-5l-3 -1 -8 -1 -23 -3 -11 -1 -2 0 -10 -2 -23 -3 -12 -1 0 0 -12 -1 -24 -3 -1 0c-40,-4 -82,-7 -124,-10l-13 -1 110 985 34 313 14 121c-137,-6 -277,-10 -419,-10 -143,0 -283,4 -419,10z"/>
    </g>
    <path class="fil7 str13" d="M2036 3347l175 -1572 244 29 244 -29 175 1572c-137,-6 -277,-10 -419,-10 -143,0 -283,4 -419,10z"/>
    <polygon class="fil8" points="2137,2435 2165,2189 2826,2913 2860,3226 "/>
    <path class="fil8" d="M2061 3123l61 -553 708 775c-122,-5 -248,-8 -375,-8 -66,0 -131,1 -196,2l-198 -216z"/>
    <path class="fil9" d="M2455 1804l118 -14 128 0 173 1557c-137,-6 -277,-10 -419,-10l0 -1533z"/>
    <path class="fil10" d="M2455 3214l0 123c127,0 253,3 375,8l-375 -411 0 280z"/>
    <g>
     <polyline class="fil4" points="2455,3337 2455,2934 2830,3345 "/>
     <polygon class="fil10" points="2826,2913 2860,3226 2455,2782 2455,2507 "/>
    </g>
    <path class="fil4 str13" d="M2036 3347l175 -1572 244 29 244 -29 175 1572c-137,-6 -277,-10 -419,-10 -143,0 -283,4 -419,10z"/>
    <path class="fil11" d="M2658 1625c0,0 11,-553 -170,-1255l-33 0 -33 0c-181,702 -171,1255 -171,1255l204 0 203 0z"/>
    <path class="fil6" d="M2658 1614c1,-79 -4,-571 -156,-1189 -34,19 -53,57 -47,123 26,294 63,823 -35,1009l238 57z"/>
    <path class="fil12" d="M1563 2058c305,-183 1479,-183 1784,0l0 -441c-206,-188 -1578,-188 -1784,0l0 441z"/>
    <path class="fil13 str14" d="M2482 1921c360,2 716,48 865,137l0 -441c-97,-89 -453,-136 -824,-141 77,174 53,329 -41,445z"/>
    <path class="fil14" d="M2455 641c166,0 300,-135 300,-301 0,-165 -134,-300 -300,-300 -166,0 -300,135 -300,300 0,166 134,301 300,301z"/>
    <path class="fil15" d="M2473 640c158,-9 282,-140 282,-300 0,-165 -134,-300 -300,-300 -11,0 -22,1 -32,2 200,146 169,472 50,598z"/>
    <g>
     <path class="fil16" d="M2455 548c114,0 207,-93 207,-208 0,-114 -93,-207 -207,-207 -114,0 -207,93 -207,207 0,115 93,208 207,208z"/>
     <path class="fil17" d="M2248 353c4,72 45,134 104,167l103 -180 -207 13z"/>
     <path class="fil18" d="M2660 311c-10,-71 -56,-130 -118,-158l-87 187 205 -29z"/>
    </g>
    <polygon class="fil16" points="2453,1886 2535,1839 2617,1792 2617,1697 2617,1602 2535,1555 2453,1508 2371,1555 2289,1602 2289,1697 2289,1792 2371,1839 "/>
    <polygon class="fil17" points="2289,1792 2453,1697 2453,1886 "/>
    <polygon class="fil19" points="2289,1602 2453,1697 2617,1602 2453,1508 "/>
    <polyline class="fil4" points="2455,3337 2455,2934 2830,3345 "/>
    <path class="fil4 str15" d="M1563 2058c305,-183 1479,-183 1784,0l0 -441c-206,-188 -1578,-188 -1784,0l0 441z"/>
    <path class="fil4 str16" d="M2455 641c166,0 300,-135 300,-301 0,-165 -134,-300 -300,-300 -166,0 -300,135 -300,300 0,166 134,301 300,301z"/>
   </g>
   <g id="_626935472">
    <path class="fil20 str17" d="M486 4301c-125,79 -268,191 -381,378 0,0 175,-85 398,-82 0,0 -119,80 -181,319 320,-181 483,-233 719,-298 39,-19 30,-103 -17,-271 874,-101 1988,-101 2862,0 -47,168 -56,252 -17,271 235,65 398,117 718,298 -61,-239 -180,-319 -180,-319 223,-3 398,82 398,82 -113,-187 -256,-299 -381,-378 21,-72 45,-175 56,-300 24,-257 -13,-377 -13,-377 -1069,-382 -2955,-382 -4024,0 0,0 -37,120 -14,377 12,125 36,228 57,300z"/>
    <g>
     <path class="fil20 str18" d="M1041 4618c-15,-168 -91,-239 -91,-239l-107 -170c0,0 -114,-48 -255,32 -141,79 -337,196 -483,438 0,0 175,-85 398,-82 0,0 -119,80 -181,319 320,-181 483,-233 719,-298z"/>
     <path class="fil20 str19" d="M3869 4618c15,-168 91,-239 91,-239l107 -170c0,0 114,-48 255,32 140,79 337,196 483,438 0,0 -175,-85 -398,-82 0,0 119,80 180,319 -320,-181 -483,-233 -718,-298z"/>
     <g>
      <path class="fil21 str20" d="M560 4415l224 -321c0,0 110,-158 192,108 83,266 109,392 60,416 -57,-45 -193,-238 -476,-203z"/>
      <path class="fil21 str21" d="M4350 4415l-224 -321c0,0 -110,-158 -193,108 -82,266 -109,392 -59,416 57,-45 192,-238 476,-203z"/>
     </g>
     <path class="fil22 str22" d="M4467 3624c-1069,-382 -2955,-382 -4024,0 0,0 -37,120 -14,377 24,258 99,420 99,420 1063,-200 2790,-200 3854,0 0,0 74,-162 98,-420 24,-257 -13,-377 -13,-377z"/>
    </g>
   </g>
   <path class="fil23" d="M1553 4048l-47 5 3 59 5 11 -17 4 -52 5 -1 -10 4 -6 -5 -49 -4 -4 -140 14 -10 -104 94 -312 74 -8 -2 8 30 289 17 36 45 -1 6 63zm-125 -50l-11 -111 -6 -5 0 -17 -4 -14 2 -7 -3 -25 -50 187 72 -8z"/>
   <polygon id="1" class="fil23" points="2011,4086 2006,4091 1945,4088 1798,4094 1769,4097 1764,4068 1756,4002 1753,3945 1750,3931 1752,3896 1747,3883 1744,3818 1750,3795 1747,3728 1739,3719 1743,3715 1738,3601 1962,3591 1974,3588 1987,3599 1983,3615 1991,3801 1973,3799 1961,3793 1955,3794 1951,3789 1939,3793 1932,3793 1917,3790 1914,3703 1916,3692 1914,3661 1808,3666 1810,3702 1824,3800 1820,3810 1827,3962 1823,3965 1829,3970 1826,3982 1826,3994 1830,3996 1829,4023 1852,4025 1939,4021 1934,3903 2002,3883 "/>
   <path id="2" class="fil23" d="M2269 4102l-24 -94 -112 2 -14 91 -63 1 44 -367 3 -1 8 -46 12 -45 3 -39 65 -1 28 -3 5 15 0 15 4 4 15 50 19 77 40 200 24 140 -57 1zm-39 -173l-50 -213 1 48 -31 166 80 -1z"/>
   <polygon id="3" class="fil23" points="2647,3891 2649,3893 2646,3904 2648,3906 2643,3974 2648,3982 2643,3984 2643,3991 2648,3994 2643,4001 2639,4014 2635,4092 2558,4091 2554,4083 2556,4077 2531,4024 2498,3943 2461,3845 2448,3799 2447,3847 2451,3856 2448,3876 2452,3917 2452,3922 2454,3927 2446,4081 2435,4085 2408,4084 2405,4081 2399,4083 2384,4083 2374,4080 2367,3759 2368,3663 2377,3588 2394,3592 2429,3592 2440,3588 2490,3702 2494,3704 2492,3707 2500,3724 2500,3732 2523,3780 2559,3889 2562,3892 2554,3608 2560,3592 2631,3593 2638,3678 2638,3697 2643,3748 2646,3751 2646,3758 2641,3760 "/>
   <polygon id="4" class="fil23" points="2983,3678 2973,3686 2942,3678 2903,3677 2891,3678 2885,3810 2887,3834 2880,4000 2882,4011 2880,4049 2884,4055 2880,4056 2880,4062 2876,4071 2875,4087 2878,4098 2870,4104 2804,4101 2800,4095 2817,3678 2703,3674 2706,3660 2709,3597 2704,3585 2704,3581 2707,3579 2770,3588 2853,3591 2862,3590 2881,3594 2911,3594 2916,3597 2918,3593 2923,3592 2934,3593 2942,3598 2979,3599 2982,3613 2979,3671 "/>
   <path id="5" class="fil23" d="M3269 3996l0 12 -4 29 -3 5 3 3 -5 2 1 8 6 11 -7 5 4 2 -5 19 0 39 -4 -1 -5 -6 -3 6 -5 -1 -2 -5 -4 3 -5 -3 -31 -2 -8 -4 0 4 -32 -2 -32 -6 -3 4 -55 -4 -43 -7 -2 -2 -4 3 -5 0 -1 -134 14 -208 6 -22 0 -14 -3 -4 5 -12 1 -5 -5 -3 4 -5 2 -98 236 17 11 6 -7 100 6 10 -1 8 -7 16 4 3 -5 32 6 4 -6 36 4 8 -1 10 -6 4 7 17 -4 3 1 8 -2 6 -1 16 1 7 -3 4 1 8 -1 6 4 3 -4 8 -3 48 5 3 -5 2zm-69 -9l0 -39 -4 -10 10 -144 -5 -3 5 -7 5 -70 4 -20 -110 -8 0 41 -3 5 3 2 0 3 -4 6 3 14 -6 89 4 5 -2 3 -5 2 10 7 -12 9 4 45 -2 62 -7 3 6 8 -1 15 -6 31 2 4 60 1 44 2 3 -34 -1 -8 4 -3 1 -11z"/>
   <polygon id="6" class="fil23" points="3591,4016 3578,4147 3314,4120 3310,4112 3311,4105 3316,4093 3335,3908 3338,3905 3360,3910 3406,3915 3391,4054 3395,4058 3434,4062 3439,4059 3441,4062 3513,4069 3512,4045 3521,3957 3410,3870 3352,3817 3347,3817 3343,3803 3346,3778 3347,3722 3358,3621 3541,3640 3621,3646 3603,3817 3598,3818 3559,3812 3538,3812 3534,3808 3545,3710 3536,3704 3516,3698 3505,3697 3499,3702 3424,3694 3420,3729 3420,3774 3553,3883 3601,3919 3591,4013 "/>
  </g>
 </g>
</svg>
